<svg width="160" height="85" viewBox="0 0 160 85" fill="none" xmlns="http://www.w3.org/2000/svg">
<path d="M134.831 2.20498C133.742 1.31618 132.382 0.830877 130.978 0.830877C129.575 0.830877 128.215 1.31618 127.126 2.20498C119.333 8.56515 109.965 21.0094 111.093 35.4937C111.374 38.9955 112.232 42.3737 113.466 45.5568C113.555 45.7847 113.657 46.0093 113.772 46.2253C121.964 61.6005 139.993 61.6005 148.185 46.2253C148.3 46.0093 148.402 45.785 148.49 45.5571C149.725 42.374 150.583 38.9958 150.864 35.4939C151.992 21.0092 142.624 8.56515 134.831 2.20498Z" fill="#FFBF73"/>
<path opacity="0.43" d="M143.28 48.5905C134.21 48.5905 126.858 37.0567 126.858 22.829C126.858 13.6506 129.918 5.59439 134.525 1.03145C133.597 0.787152 132.624 0.766106 131.686 0.970024C130.748 1.17394 129.871 1.59707 129.126 2.20498C121.333 8.56515 111.965 21.0094 113.093 35.4937C113.374 38.9955 114.232 42.3737 115.466 45.5568C115.555 45.7847 115.657 46.0093 115.772 46.2253C123.964 61.6005 141.993 61.6005 150.185 46.2253C150.189 46.2164 150.193 46.2073 150.198 46.1985C148.095 47.7324 145.752 48.5905 143.28 48.5905Z" fill="#FFBF73"/>
<path d="M131 82.7449V27.3214" stroke="#135677" stroke-width="2.088" stroke-miterlimit="10" stroke-linecap="round" stroke-linejoin="round"/>
<path d="M43.8271 64.584C43.3398 60.3598 44.0323 51.0083 46.0735 44.7843C47.4175 40.6863 48.6751 35.1177 54.2169 31.9973C58.7901 29.4226 88.3667 27.3188 104.928 29.0029C114.158 29.9414 121.814 39.0267 126.583 46.563C142.308 49.4596 142.702 49.4617 146.392 50.5881C150.083 51.7145 153.685 54.5328 153.685 58.797V69.1256H44.2682C44.1078 66.5235 43.9874 67.1587 43.8271 64.584Z" fill="#4DCBAB"/>
<path opacity="0.49" d="M146.652 49.8075C142.961 48.6811 142.568 48.679 126.843 45.7824C122.074 38.2461 114.418 29.1608 105.187 28.2223C88.6262 26.5385 59.0494 28.642 54.4764 31.2167C53.2334 31.9164 52.2075 32.7402 51.3463 33.642L51.373 33.6262C55.9463 31.0515 85.5228 28.9477 102.084 30.6317C110.779 31.5157 118.68 39.6288 123.553 46.8664C124.13 47.723 125.034 48.3051 126.047 48.4922C140.128 51.09 139.99 51.1309 143.549 52.217C147.239 53.3434 150.842 56.1617 150.842 60.4259V68.3449H153.945V58.0164C153.945 53.7519 150.342 50.9339 146.652 49.8075Z" fill="#4DCBAB"/>
<path opacity="0.21" d="M103.35 45.1868V68.3926M67.0216 45.1904L66.431 68.3887" stroke="#72757C" stroke-width="0.783" stroke-miterlimit="10" stroke-linecap="round"/>
<path opacity="0.2" d="M53.9914 44.7842C55.3354 40.6863 56.593 35.1177 62.1348 31.9973C65.2709 30.2316 80.1657 28.6878 94.5576 28.4346C78.2101 28.1195 57.9375 29.9024 54.2169 31.9973C48.6751 35.1174 47.4175 40.686 46.0735 44.7842C44.0323 51.0083 43.3398 60.3598 43.8271 64.584C43.9874 67.1587 44.1078 66.5235 44.2684 69.1256H52.1864C52.026 66.5235 51.9056 67.1587 51.745 64.584C51.2575 60.3598 51.95 51.0083 53.9914 44.7842Z" fill="#72757C"/>
<path d="M43.8271 64.584C43.3398 60.3598 44.0323 51.0083 46.0735 44.7843C47.4175 40.6863 48.6751 35.1177 54.2169 31.9973C58.7901 29.4226 88.3667 27.3188 104.928 29.0029C113.581 29.8826 120.851 37.9229 125.655 45.1342C126.27 46.0572 127.24 46.6843 128.329 46.8844C142.343 49.4614 142.844 49.5049 146.392 50.5881C150.083 51.7145 153.685 54.5328 153.685 58.797V69.1256H44.2682C44.1078 66.5235 43.9874 67.1587 43.8271 64.584Z" stroke="#135677" stroke-width="2.088" stroke-miterlimit="10" stroke-linecap="round" stroke-linejoin="round"/>
<path d="M103.38 46.6499C101.46 40.4388 98.1292 35.0164 95.7196 31.6125C99.056 31.7472 102.028 31.9679 104.576 32.2705C112.252 33.183 118.6 40.4571 122.823 46.977L103.38 46.6499Z" fill="#FFC88D"/>
<path opacity="0.2" d="M107.286 41.4989C105.859 38.9088 107.911 35.7757 110.847 36.0672C111.391 36.1213 111.919 36.1785 112.43 36.2391C112.87 36.2914 113.307 36.3674 113.739 36.4603C110.977 34.2559 107.901 32.6658 104.576 32.2705C102.028 31.9679 99.0562 31.7475 95.7198 31.6125C98.1297 35.0164 101.46 40.4388 103.38 46.6499L109.828 46.7584C109.049 44.8826 108.176 43.1156 107.286 41.4989Z" fill="#FFBF73"/>
<path d="M103.38 46.6499C101.46 40.4388 98.1292 35.0164 95.7196 31.6125C99.056 31.7472 102.028 31.9679 104.576 32.2705C112.252 33.183 118.6 40.4571 122.823 46.977L103.38 46.6499Z" stroke="#135677" stroke-width="2.088" stroke-miterlimit="10" stroke-linecap="round" stroke-linejoin="round"/>
<path d="M69.625 46.391L70.7295 32.5463C76.7827 32.112 83.436 31.895 89.5676 31.9338C90.2121 31.938 90.8527 31.9447 91.4886 31.9549C93.8302 34.8788 97.6679 40.2661 99.9159 46.583L69.625 46.391Z" fill="#FFC88D"/>
<path opacity="0.2" d="M74.3068 39.5531C74.4937 37.1582 76.6718 35.2556 79.3993 35.1145C83.8905 34.8824 88.541 34.7724 92.9176 34.8002C93.1576 34.8018 93.3942 34.8057 93.6329 34.808C92.9465 33.8357 92.2313 32.8842 91.4882 31.9546C90.8479 31.9447 90.2076 31.9377 89.5672 31.9335C83.4357 31.8948 76.7823 32.1115 70.7292 32.5461L69.6246 46.3907L73.7711 46.417L74.3068 39.5531Z" fill="#FFBF73"/>
<path d="M69.625 46.391L70.7295 32.5463C76.7827 32.112 83.436 31.895 89.5676 31.9338C90.2121 31.938 90.8527 31.9447 91.4886 31.9549C93.8302 34.8788 97.6679 40.2661 99.9159 46.583L69.625 46.391Z" stroke="#135677" stroke-width="2.088" stroke-miterlimit="10" stroke-linecap="round" stroke-linejoin="round"/>
<path d="M62.2973 72.5558H43.242C40.6628 72.5558 38.5718 70.4588 38.5718 67.8722C38.5718 65.2855 40.6628 63.1885 43.242 63.1885H62.2973V72.5558Z" fill="white"/>
<path opacity="0.2" d="M44.1502 69.0996C44.1502 66.5129 46.2411 64.4159 48.8204 64.4159H62.2973V63.1885H43.242C40.6628 63.1885 38.5718 65.2855 38.5718 67.8722C38.5718 70.4588 40.6628 72.5558 43.242 72.5558H45.6766C44.7409 71.6992 44.1502 70.47 44.1502 69.0996Z" fill="#72757C"/>
<path d="M62.2973 72.5558H43.242C40.6628 72.5558 38.5718 70.4588 38.5718 67.8722C38.5718 65.2855 40.6628 63.1885 43.242 63.1885H62.2973V72.5558Z" stroke="#135677" stroke-width="2.088" stroke-miterlimit="10" stroke-linecap="round" stroke-linejoin="round"/>
<path d="M154.464 72.5558H138.86V64.7497H154.464C156.613 64.7497 158.356 66.4972 158.356 68.6528C158.356 70.8083 156.613 72.5558 154.464 72.5558Z" fill="white"/>
<path opacity="0.2" d="M139.888 67.7626H155.492C156.617 67.7626 157.627 68.2442 158.338 69.0095C158.348 68.8919 158.356 68.773 158.356 68.6525C158.356 66.497 156.613 64.7494 154.464 64.7494H138.86V72.5556H139.887V67.7626H139.888Z" fill="#72757C"/>
<path d="M154.464 72.5558H138.86V64.7497H154.464C156.613 64.7497 158.356 66.4972 158.356 68.6528C158.356 70.8083 156.613 72.5558 154.464 72.5558Z" stroke="#135677" stroke-width="2.088" stroke-miterlimit="10" stroke-linecap="round" stroke-linejoin="round"/>
<path d="M70.9047 68.3926H119.043V72.5558H70.9047V68.3926Z" fill="white"/>
<path opacity="0.2" d="M70.9047 68.3926H119.043V70.4742H70.9047V68.3926Z" fill="#72757C"/>
<path d="M70.9047 68.3926H119.043V72.5558H70.9047V68.3926Z" stroke="#135677" stroke-width="2.088" stroke-miterlimit="10" stroke-linecap="round" stroke-linejoin="round"/>
<path d="M130.676 83.1766C137.057 83.1766 142.229 77.9892 142.229 71.5902C142.229 65.1912 137.057 60.0038 130.676 60.0038C124.296 60.0038 119.123 65.1912 119.123 71.5902C119.123 77.9892 124.296 83.1766 130.676 83.1766Z" fill="#82818C"/>
<path d="M130.676 83.1766C137.057 83.1766 142.229 77.9892 142.229 71.5902C142.229 65.1912 137.057 60.0038 130.676 60.0038C124.296 60.0038 119.123 65.1912 119.123 71.5902C119.123 77.9892 124.296 83.1766 130.676 83.1766Z" stroke="#135677" stroke-width="2.088" stroke-miterlimit="10" stroke-linecap="round" stroke-linejoin="round"/>
<path d="M130.676 77.8661C134.132 77.8661 136.934 75.0563 136.934 71.5902C136.934 68.1241 134.132 65.3144 130.676 65.3144C127.22 65.3144 124.418 68.1241 124.418 71.5902C124.418 75.0563 127.22 77.8661 130.676 77.8661Z" fill="white"/>
<path d="M130.676 77.8661C134.132 77.8661 136.934 75.0563 136.934 71.5902C136.934 68.1241 134.132 65.3144 130.676 65.3144C127.22 65.3144 124.418 68.1241 124.418 71.5902C124.418 75.0563 127.22 77.8661 130.676 77.8661Z" stroke="#135677" stroke-width="2.088" stroke-miterlimit="10" stroke-linecap="round" stroke-linejoin="round"/>
<path d="M130.676 73.5212C131.74 73.5212 132.602 72.6567 132.602 71.5902C132.602 70.5238 131.74 69.6592 130.676 69.6592C129.613 69.6592 128.751 70.5238 128.751 71.5902C128.751 72.6567 129.613 73.5212 130.676 73.5212Z" stroke="#135677" stroke-width="2.088" stroke-miterlimit="10" stroke-linecap="round" stroke-linejoin="round"/>
<path d="M63.7644 83.1766C70.1451 83.1766 75.3176 77.9892 75.3176 71.5902C75.3176 65.1912 70.1451 60.0038 63.7644 60.0038C57.3837 60.0038 52.2112 65.1912 52.2112 71.5902C52.2112 77.9892 57.3837 83.1766 63.7644 83.1766Z" fill="#82818C"/>
<path d="M63.7644 83.1766C70.1451 83.1766 75.3176 77.9892 75.3176 71.5902C75.3176 65.1912 70.1451 60.0038 63.7644 60.0038C57.3837 60.0038 52.2112 65.1912 52.2112 71.5902C52.2112 77.9892 57.3837 83.1766 63.7644 83.1766Z" stroke="#135677" stroke-width="2.088" stroke-miterlimit="10" stroke-linecap="round" stroke-linejoin="round"/>
<path d="M63.7644 77.8661C67.2205 77.8661 70.0223 75.0563 70.0223 71.5902C70.0223 68.1241 67.2205 65.3144 63.7644 65.3144C60.3082 65.3144 57.5065 68.1241 57.5065 71.5902C57.5065 75.0563 60.3082 77.8661 63.7644 77.8661Z" fill="white"/>
<path d="M63.7644 77.8661C67.2205 77.8661 70.0223 75.0563 70.0223 71.5902C70.0223 68.1241 67.2205 65.3144 63.7644 65.3144C60.3082 65.3144 57.5065 68.1241 57.5065 71.5902C57.5065 75.0563 60.3082 77.8661 63.7644 77.8661Z" stroke="#135677" stroke-width="2.088" stroke-miterlimit="10" stroke-linecap="round" stroke-linejoin="round"/>
<path d="M63.7643 73.5212C64.8277 73.5212 65.6898 72.6567 65.6898 71.5902C65.6898 70.5238 64.8277 69.6592 63.7643 69.6592C62.7009 69.6592 61.8389 70.5238 61.8389 71.5902C61.8389 72.6567 62.7009 73.5212 63.7643 73.5212Z" stroke="#135677" stroke-width="2.088" stroke-miterlimit="10" stroke-linecap="round" stroke-linejoin="round"/>
<path d="M67.5046 32.2908C60.6344 33.028 57.0977 33.9186 56.0726 34.5424C51.9869 37.0296 50.7596 41.2463 49.6769 44.9667C49.5612 45.3669 49.4433 45.7665 49.3233 46.1654C49.2911 46.2711 49.2592 46.3785 49.2275 46.4878H66.5942L67.5046 32.2908Z" fill="#FFC88D"/>
<path opacity="0.2" d="M53.6083 46.3408C54.691 42.6204 55.9182 38.4038 60.0039 35.9165C60.8038 35.4296 63.1338 34.7802 67.3843 34.1682L67.5046 32.2908C60.6344 33.028 57.0977 33.9186 56.0726 34.5424C51.9869 37.0296 50.7596 41.2463 49.6769 44.9667C49.5612 45.3669 49.4433 45.7665 49.3233 46.1654C49.2911 46.2711 49.2592 46.3785 49.2275 46.4878H53.5649L53.6083 46.3408Z" fill="#FFBF73"/>
<path d="M67.5046 32.2908C60.6344 33.028 57.0977 33.9186 56.0726 34.5424C51.9869 37.0296 50.7596 41.2463 49.6769 44.9667C49.5612 45.3669 49.4433 45.7665 49.3233 46.1654C49.2911 46.2711 49.2592 46.3785 49.2275 46.4878H66.5942L67.5046 32.2908Z" stroke="#135677" stroke-width="2.088" stroke-miterlimit="10" stroke-linecap="round" stroke-linejoin="round"/>
<path d="M155.795 56.679C156.085 58.4554 154.433 59.9125 151.845 60.141C149.381 60.383 146.543 59.2721 146.09 57.5025C145.812 55.7253 148.757 54.1474 151.246 53.9216C153.716 53.6772 155.444 54.9051 155.795 56.679Z" fill="white"/>
<path d="M110.881 51.1715H105.951M75.3286 51.1715H70.1394M155.795 56.679C156.085 58.4554 154.433 59.9125 151.845 60.141C149.381 60.383 146.543 59.2721 146.09 57.5025C145.812 55.7253 148.757 54.1474 151.246 53.9216C153.716 53.6772 155.443 54.9051 155.795 56.679Z" stroke="#135677" stroke-width="2.088" stroke-miterlimit="10" stroke-linecap="round" stroke-linejoin="round"/>
<path fill-rule="evenodd" clip-rule="evenodd" d="M129.81 8.07876C130.08 7.87831 130.447 7.87384 130.722 8.06766C131.982 8.95788 132.792 10.4391 132.734 12.0945C132.682 13.5872 131.936 14.8899 130.823 15.7174C130.553 15.9179 130.186 15.9223 129.911 15.7285C128.651 14.8383 127.841 13.3571 127.899 11.7017C127.951 10.2093 128.697 8.90631 129.81 8.07876ZM130.286 9.73849C129.791 10.2765 129.482 10.9799 129.455 11.7563C129.424 12.6407 129.765 13.4574 130.347 14.0577C130.842 13.5198 131.151 12.8165 131.178 12.0399C131.209 11.1555 130.868 10.3388 130.286 9.73849ZM135.311 19.13C136.307 17.9737 137.735 17.415 139.152 17.4712C139.487 17.4845 139.777 17.712 139.869 18.0356C140.305 19.5564 140.003 21.2578 138.898 22.5402C137.903 23.6967 136.475 24.2554 135.058 24.1989C134.722 24.1855 134.433 23.9581 134.341 23.6346C133.905 22.1137 134.207 20.4123 135.311 19.13ZM138.487 19.0616C137.732 19.1689 137.019 19.5361 136.49 20.1505C135.887 20.8496 135.635 21.7393 135.722 22.6086C136.478 22.5015 137.191 22.1342 137.72 21.5197C138.322 20.8206 138.575 19.9309 138.487 19.0616ZM120.963 19.8433C121.164 19.5733 121.514 19.4625 121.833 19.5686C123.33 20.0668 124.559 21.2776 124.991 22.9161C125.38 24.3934 125.033 25.8906 124.187 27.0313C123.986 27.3014 123.636 27.4122 123.317 27.3062C121.82 26.8079 120.59 25.5971 120.159 23.9585C119.77 22.4813 120.116 20.9839 120.963 19.8433ZM121.896 21.2917C121.558 21.9775 121.457 22.7749 121.664 23.5599C121.899 24.453 122.489 25.1642 123.254 25.583C123.592 24.897 123.692 24.0998 123.486 23.3148C123.251 22.4217 122.661 21.7105 121.896 21.2917ZM137.822 42.803C138.849 41.8725 140.198 41.5296 141.468 41.7396C141.8 41.7943 142.059 42.0559 142.111 42.3884C142.333 43.807 141.871 45.3065 140.732 46.3387C139.705 47.2691 138.356 47.6121 137.085 47.4022C136.754 47.3474 136.495 47.0859 136.443 46.7533C136.221 45.3347 136.683 43.8352 137.822 42.803ZM140.604 43.2444C139.975 43.2748 139.361 43.5129 138.865 43.9615C138.299 44.4751 137.989 45.1737 137.95 45.8973C138.578 45.8669 139.193 45.6289 139.689 45.1803C140.255 44.6667 140.565 43.968 140.604 43.2444Z" fill="#135677"/>
<path d="M123 41.1122C123 41.1122 125.378 47.5307 130.963 47.9642M130.925 41.2704C130.925 41.2704 135.976 39.0834 136.404 33.7532" stroke="#135677" stroke-width="2.088" stroke-miterlimit="10" stroke-linecap="round" stroke-linejoin="round"/>
</svg>
