<svg width="161" height="86" viewBox="0 0 161 86" fill="none" xmlns="http://www.w3.org/2000/svg">
<g clip-path="url(#clip0_28_284)">
<path d="M39.1098 2.21172C38.0152 1.32021 36.6466 0.833418 35.2349 0.833418C33.8231 0.833418 32.4546 1.32021 31.3599 2.21172C23.5203 8.59134 14.0969 21.0737 15.2312 35.6022C15.5136 39.1148 16.3775 42.5033 17.6188 45.6961C17.7078 45.9248 17.8104 46.15 17.9263 46.3667C26.1666 61.7889 44.3029 61.7889 52.5432 46.3667C52.6589 46.15 52.7617 45.925 52.8507 45.6964C54.0923 42.5036 54.9559 39.115 55.2383 35.6025C56.3729 21.0734 46.9495 8.59134 39.1098 2.21172Z" fill="#FFBF73"/>
<path opacity="0.43" d="M48.208 48.7391C39.0842 48.7391 31.688 37.1701 31.688 22.8988C31.688 13.6923 34.7668 5.6115 39.4011 1.03461C38.4671 0.78956 37.4884 0.768449 36.5447 0.972991C35.601 1.17753 34.7189 1.60195 33.9702 2.21172C26.1305 8.59134 16.7071 21.0737 17.8414 35.6022C18.1238 39.1148 18.9877 42.5033 20.2291 45.6961C20.3181 45.9248 20.4206 46.15 20.5365 46.3667C28.7768 61.7889 46.9132 61.7889 55.1535 46.3667C55.1582 46.3578 55.1621 46.3486 55.1668 46.3398C53.0516 47.8784 50.6943 48.7391 48.208 48.7391Z" fill="#FFBF73"/>
<path d="M35.235 82.998V27.405" stroke="#135677" stroke-width="2.088" stroke-miterlimit="10" stroke-linecap="round" stroke-linejoin="round"/>
<path d="M44.0874 64.7815C43.5972 60.5444 44.2938 51.1644 46.3471 44.9212C47.6991 40.8108 48.9642 35.2251 54.5389 32.0952C59.1392 29.5126 88.8914 27.4024 105.551 29.0916C114.836 30.033 122.538 39.1461 127.335 46.7054C143.153 49.6109 143.549 49.613 147.261 50.7428C150.974 51.8727 154.598 54.6996 154.598 58.9769V69.337H44.5311C44.3698 66.727 44.2487 67.3641 44.0874 64.7815Z" fill="#4DCBAB"/>
<path opacity="0.49" d="M147.522 49.9598C143.81 48.83 143.414 48.8279 127.596 45.9224C122.799 38.3631 115.097 29.25 105.812 28.3086C89.1524 26.6197 59.4 28.7296 54.7998 31.3122C53.5494 32.014 52.5174 32.8403 51.6511 33.7449L51.678 33.729C56.2784 31.1464 86.0306 29.0362 102.69 30.7254C111.436 31.6121 119.384 39.75 124.287 47.0098C124.867 47.869 125.776 48.4528 126.796 48.6405C140.96 51.2463 140.821 51.2873 144.401 52.3767C148.113 53.5066 151.737 56.3334 151.737 60.6107V68.554H154.859V58.1939C154.859 53.9163 151.235 51.0897 147.522 49.9598Z" fill="#4DCBAB"/>
<path opacity="0.21" d="M103.964 45.325V68.6018M67.4195 45.3287L66.8254 68.5979" stroke="#72757C" stroke-width="0.783" stroke-miterlimit="10" stroke-linecap="round"/>
<path opacity="0.2" d="M54.3121 44.9212C55.664 40.8107 56.9291 35.2251 62.5038 32.0952C65.6585 30.324 80.6417 28.7755 95.1191 28.5216C78.6746 28.2055 58.2816 29.9939 54.5389 32.0952C48.9642 35.2248 47.6991 40.8105 46.3471 44.9212C44.2938 51.1644 43.5972 60.5444 44.0874 64.7815C44.2487 67.3641 44.3698 66.727 44.5313 69.337H52.4963C52.335 66.727 52.2139 67.3641 52.0523 64.7815C51.5619 60.5444 52.2585 51.1644 54.3121 44.9212Z" fill="#72757C"/>
<path d="M44.0874 64.7815C43.5972 60.5444 44.2938 51.1644 46.3471 44.9212C47.6991 40.8108 48.9642 35.2251 54.5389 32.0952C59.1392 29.5126 88.8914 27.4024 105.551 29.0916C114.256 29.974 121.569 38.0389 126.402 45.2723C127.02 46.198 127.996 46.8271 129.091 47.0278C143.189 49.6127 143.692 49.6563 147.261 50.7428C150.974 51.8727 154.598 54.6996 154.598 58.9769V69.337H44.5311C44.3698 66.727 44.2487 67.3641 44.0874 64.7815Z" stroke="#135677" stroke-width="2.088" stroke-miterlimit="10" stroke-linecap="round" stroke-linejoin="round"/>
<path d="M103.993 46.7926C102.062 40.5625 98.7117 35.1236 96.2878 31.7092C99.644 31.8444 102.634 32.0657 105.197 32.3692C112.918 33.2845 119.304 40.5808 123.552 47.1207L103.993 46.7926Z" fill="#FFC88D"/>
<path opacity="0.2" d="M107.923 41.6259C106.488 39.0279 108.552 35.8852 111.506 36.1775C112.053 36.2318 112.583 36.2892 113.097 36.35C113.541 36.4024 113.979 36.4787 114.414 36.5718C111.636 34.3607 108.542 32.7657 105.197 32.3692C102.634 32.0657 99.6444 31.8446 96.2882 31.7092C98.7124 35.1236 102.062 40.5625 103.994 46.7926L110.481 46.9014C109.697 45.0199 108.818 43.2474 107.923 41.6259Z" fill="#FFBF73"/>
<path d="M103.993 46.7926C102.062 40.5625 98.7117 35.1236 96.2878 31.7092C99.644 31.8444 102.634 32.0657 105.197 32.3692C112.918 33.2845 119.304 40.5808 123.552 47.1207L103.993 46.7926Z" stroke="#135677" stroke-width="2.088" stroke-miterlimit="10" stroke-linecap="round" stroke-linejoin="round"/>
<path d="M70.0383 46.5329L71.1494 32.6459C77.2385 32.2103 83.9314 31.9926 90.0993 32.0315C90.7476 32.0357 91.392 32.0425 92.0318 32.0526C94.3873 34.9855 98.2477 40.3892 100.509 46.7255L70.0383 46.5329Z" fill="#FFC88D"/>
<path opacity="0.2" d="M74.7481 39.6741C74.936 37.2718 77.1271 35.3634 79.8707 35.222C84.3886 34.9891 89.0668 34.8787 93.4694 34.9067C93.7108 34.9082 93.9488 34.9121 94.1889 34.9145C93.4984 33.9392 92.7789 32.9848 92.0315 32.0524C91.3874 32.0424 90.7432 32.0354 90.0991 32.0312C83.9311 31.9923 77.2383 32.2098 71.1492 32.6456L70.0381 46.5327L74.2091 46.559L74.7481 39.6741Z" fill="#FFBF73"/>
<path d="M70.0383 46.5329L71.1494 32.6459C77.2385 32.2103 83.9314 31.9926 90.0993 32.0315C90.7476 32.0357 91.392 32.0425 92.0318 32.0526C94.3873 34.9855 98.2477 40.3892 100.509 46.7255L70.0383 46.5329Z" stroke="#135677" stroke-width="2.088" stroke-miterlimit="10" stroke-linecap="round" stroke-linejoin="round"/>
<path d="M62.6671 72.7778H43.4988C40.9042 72.7778 38.8008 70.6744 38.8008 68.0798C38.8008 65.4852 40.9042 63.3818 43.4988 63.3818H62.6671V72.7778Z" fill="white"/>
<path opacity="0.2" d="M44.4123 69.3109C44.4123 66.7163 46.5157 64.6129 49.1103 64.6129H62.6671V63.3818H43.4988C40.9042 63.3818 38.8008 65.4852 38.8008 68.0798C38.8008 70.6744 40.9042 72.7778 43.4988 72.7778H45.9477C45.0066 71.9186 44.4123 70.6856 44.4123 69.3109Z" fill="#72757C"/>
<path d="M62.6671 72.7778H43.4988C40.9042 72.7778 38.8008 70.6744 38.8008 68.0798C38.8008 65.4852 40.9042 63.3818 43.4988 63.3818H62.6671V72.7778Z" stroke="#135677" stroke-width="2.088" stroke-miterlimit="10" stroke-linecap="round" stroke-linejoin="round"/>
<path d="M155.381 72.7778H139.684V64.9478H155.381C157.543 64.9478 159.296 66.7006 159.296 68.8628C159.296 71.0249 157.543 72.7778 155.381 72.7778Z" fill="white"/>
<path opacity="0.2" d="M140.718 67.9699H156.415C157.547 67.9699 158.563 68.453 159.278 69.2206C159.289 69.1026 159.296 68.9833 159.296 68.8625C159.296 66.7004 157.543 64.9475 155.381 64.9475H139.684V72.7775H140.718V67.9699H140.718Z" fill="#72757C"/>
<path d="M155.381 72.7778H139.684V64.9478H155.381C157.543 64.9478 159.296 66.7006 159.296 68.8628C159.296 71.0249 157.543 72.7778 155.381 72.7778Z" stroke="#135677" stroke-width="2.088" stroke-miterlimit="10" stroke-linecap="round" stroke-linejoin="round"/>
<path d="M71.3257 68.6018H119.75V72.7778H71.3257V68.6018Z" fill="white"/>
<path opacity="0.2" d="M71.3257 68.6018H119.75V70.6898H71.3257V68.6018Z" fill="#72757C"/>
<path d="M71.3257 68.6018H119.75V72.7778H71.3257V68.6018Z" stroke="#135677" stroke-width="2.088" stroke-miterlimit="10" stroke-linecap="round" stroke-linejoin="round"/>
<path d="M131.452 83.431C137.871 83.431 143.074 78.2277 143.074 71.8092C143.074 65.3906 137.871 60.1874 131.452 60.1874C125.034 60.1874 119.83 65.3906 119.83 71.8092C119.83 78.2277 125.034 83.431 131.452 83.431Z" fill="#82818C"/>
<path d="M131.452 83.431C137.871 83.431 143.074 78.2277 143.074 71.8092C143.074 65.3906 137.871 60.1874 131.452 60.1874C125.034 60.1874 119.83 65.3906 119.83 71.8092C119.83 78.2277 125.034 83.431 131.452 83.431Z" stroke="#135677" stroke-width="2.088" stroke-miterlimit="10" stroke-linecap="round" stroke-linejoin="round"/>
<path d="M131.452 78.1042C134.929 78.1042 137.747 75.2859 137.747 71.8092C137.747 68.3325 134.929 65.5141 131.452 65.5141C127.976 65.5141 125.157 68.3325 125.157 71.8092C125.157 75.2859 127.976 78.1042 131.452 78.1042Z" fill="white"/>
<path d="M131.452 78.1042C134.929 78.1042 137.747 75.2859 137.747 71.8092C137.747 68.3325 134.929 65.5141 131.452 65.5141C127.976 65.5141 125.157 68.3325 125.157 71.8092C125.157 75.2859 127.976 78.1042 131.452 78.1042Z" stroke="#135677" stroke-width="2.088" stroke-miterlimit="10" stroke-linecap="round" stroke-linejoin="round"/>
<path d="M131.452 73.7461C132.522 73.7461 133.389 72.8789 133.389 71.8092C133.389 70.7395 132.522 69.8723 131.452 69.8723C130.382 69.8723 129.515 70.7395 129.515 71.8092C129.515 72.8789 130.382 73.7461 131.452 73.7461Z" stroke="#135677" stroke-width="2.088" stroke-miterlimit="10" stroke-linecap="round" stroke-linejoin="round"/>
<path d="M64.1429 83.431C70.5615 83.431 75.7647 78.2277 75.7647 71.8092C75.7647 65.3906 70.5615 60.1874 64.1429 60.1874C57.7244 60.1874 52.5211 65.3906 52.5211 71.8092C52.5211 78.2277 57.7244 83.431 64.1429 83.431Z" fill="#82818C"/>
<path d="M64.1429 83.431C70.5615 83.431 75.7647 78.2277 75.7647 71.8092C75.7647 65.3906 70.5615 60.1874 64.1429 60.1874C57.7244 60.1874 52.5211 65.3906 52.5211 71.8092C52.5211 78.2277 57.7244 83.431 64.1429 83.431Z" stroke="#135677" stroke-width="2.088" stroke-miterlimit="10" stroke-linecap="round" stroke-linejoin="round"/>
<path d="M64.143 78.1042C67.6196 78.1042 70.438 75.2859 70.438 71.8092C70.438 68.3325 67.6196 65.5141 64.143 65.5141C60.6663 65.5141 57.8479 68.3325 57.8479 71.8092C57.8479 75.2859 60.6663 78.1042 64.143 78.1042Z" fill="white"/>
<path d="M64.143 78.1042C67.6196 78.1042 70.438 75.2859 70.438 71.8092C70.438 68.3325 67.6196 65.5141 64.143 65.5141C60.6663 65.5141 57.8479 68.3325 57.8479 71.8092C57.8479 75.2859 60.6663 78.1042 64.143 78.1042Z" stroke="#135677" stroke-width="2.088" stroke-miterlimit="10" stroke-linecap="round" stroke-linejoin="round"/>
<path d="M64.1429 73.7461C65.2126 73.7461 66.0798 72.8789 66.0798 71.8092C66.0798 70.7395 65.2126 69.8723 64.1429 69.8723C63.0732 69.8723 62.2061 70.7395 62.2061 71.8092C62.2061 72.8789 63.0732 73.7461 64.1429 73.7461Z" stroke="#135677" stroke-width="2.088" stroke-miterlimit="10" stroke-linecap="round" stroke-linejoin="round"/>
<path d="M67.9055 32.3896C60.9945 33.129 57.4368 34.0224 56.4056 34.648C52.2956 37.1429 51.0611 41.3724 49.9719 45.1042C49.8556 45.5057 49.737 45.9065 49.6162 46.3066C49.5838 46.4126 49.5517 46.5204 49.5199 46.63H66.9897L67.9055 32.3896Z" fill="#FFC88D"/>
<path opacity="0.2" d="M53.9266 46.4825C55.0158 42.7508 56.2503 38.5213 60.3603 36.0264C61.1649 35.538 63.5087 34.8866 67.7844 34.2727L67.9055 32.3896C60.9945 33.129 57.4368 34.0224 56.4056 34.648C52.2956 37.1429 51.0611 41.3724 49.9719 45.1042C49.8556 45.5057 49.737 45.9065 49.6162 46.3066C49.5838 46.4126 49.5517 46.5204 49.5199 46.63H53.883L53.9266 46.4825Z" fill="#FFBF73"/>
<path d="M67.9055 32.3896C60.9945 33.129 57.4368 34.0224 56.4056 34.648C52.2956 37.1429 51.0611 41.3724 49.9719 45.1042C49.8556 45.5057 49.737 45.9065 49.6162 46.3066C49.5838 46.4126 49.5517 46.5204 49.5199 46.63H66.9897L67.9055 32.3896Z" stroke="#135677" stroke-width="2.088" stroke-miterlimit="10" stroke-linecap="round" stroke-linejoin="round"/>
<path d="M156.72 56.8523C157.011 58.6342 155.35 60.0958 152.747 60.3249C150.268 60.5677 147.413 59.4534 146.957 57.6784C146.677 55.8958 149.641 54.3131 152.145 54.0865C154.629 53.8414 156.366 55.0731 156.72 56.8523Z" fill="white"/>
<path d="M111.539 51.328H106.58M75.7759 51.328H70.5559M156.72 56.8523C157.011 58.6342 155.35 60.0958 152.747 60.3249C150.268 60.5677 147.413 59.4534 146.957 57.6784C146.677 55.8958 149.641 54.3131 152.145 54.0865C154.629 53.8414 156.366 55.0731 156.72 56.8523Z" stroke="#135677" stroke-width="2.088" stroke-miterlimit="10" stroke-linecap="round" stroke-linejoin="round"/>
<path fill-rule="evenodd" clip-rule="evenodd" d="M34.5487 8.10347C34.82 7.90241 35.1896 7.89792 35.4657 8.09234C36.7338 8.98528 37.5481 10.4711 37.49 12.1315C37.4376 13.6288 36.6873 14.9354 35.5673 15.7655C35.296 15.9666 34.9263 15.9711 34.6502 15.7766C33.3822 14.8837 32.5679 13.3979 32.6259 11.7375C32.6783 10.2405 33.4287 8.93356 34.5487 8.10347ZM35.0277 9.76828C34.529 10.3079 34.2183 11.0135 34.191 11.7922C34.16 12.6793 34.5031 13.4985 35.0883 14.1007C35.587 13.5612 35.8977 12.8557 35.925 12.0768C35.956 11.1897 35.6129 10.3705 35.0277 9.76828ZM40.0827 19.1885C41.0844 18.0287 42.5206 17.4683 43.946 17.5247C44.2834 17.538 44.5742 17.7662 44.6675 18.0907C45.1061 19.6162 44.802 21.3228 43.6909 22.6091C42.6892 23.7692 41.2526 24.3296 39.8274 24.2729C39.4901 24.2595 39.1993 24.0313 39.106 23.7069C38.6675 22.1814 38.9716 20.4748 40.0827 19.1885ZM43.2775 19.1199C42.5171 19.2275 41.8001 19.5959 41.2678 20.2121C40.662 20.9134 40.4082 21.8058 40.4961 22.6778C41.2564 22.5703 41.9735 22.202 42.5057 21.5856C43.1114 20.8843 43.3654 19.9919 43.2775 19.1199ZM25.6491 19.904C25.8507 19.6332 26.2033 19.5221 26.5238 19.6284C28.0299 20.1282 29.2668 21.3427 29.7008 22.9862C30.0922 24.468 29.7436 25.9698 28.8921 27.114C28.6904 27.3849 28.3378 27.496 28.0173 27.3897C26.5112 26.8899 25.2742 25.6754 24.8402 24.0318C24.4489 22.5501 24.7975 21.0481 25.6491 19.904ZM26.5878 21.3569C26.2473 22.0448 26.1463 22.8446 26.3543 23.632C26.5909 24.5278 27.184 25.2412 27.9532 25.6612C28.2938 24.9732 28.3947 24.1735 28.1868 23.3861C27.9502 22.4903 27.3571 21.7769 26.5878 21.3569ZM42.6079 42.934C43.6411 42.0005 44.9985 41.6567 46.2763 41.8672C46.6094 41.9222 46.8699 42.1845 46.9224 42.5181C47.1464 43.941 46.6815 45.4451 45.5356 46.4804C44.5023 47.4137 43.1448 47.7578 41.8672 47.5472C41.534 47.4922 41.2736 47.2299 41.2211 46.8963C40.9971 45.4734 41.462 43.9693 42.6079 42.934ZM45.4069 43.3767C44.7742 43.4072 44.1558 43.646 43.6577 44.096C43.0875 44.6111 42.7762 45.3119 42.7366 46.0377C43.3691 46.0072 43.9875 45.7685 44.4858 45.3185C45.056 44.8033 45.3673 44.1025 45.4069 43.3767Z" fill="#135677"/>
<path d="M27.2244 41.238C27.2244 41.238 29.6164 47.6761 35.235 48.1109M35.1966 41.3967C35.1966 41.3967 40.2772 39.203 40.7084 33.8564" stroke="#135677" stroke-width="2.088" stroke-miterlimit="10" stroke-linecap="round" stroke-linejoin="round"/>
</g>
<defs>
<clipPath id="clip0_28_284">
<rect width="160.95" height="85.26" fill="white"/>
</clipPath>
</defs>
</svg>
