<svg width="55" height="27" viewBox="0 0 55 27" fill="none" xmlns="http://www.w3.org/2000/svg">
<path d="M51.108 26.396C49.812 26.396 48.72 26.012 47.832 25.244C46.944 24.452 46.5 23.204 46.5 21.5V4.5L51.9 0.907997V20.42C51.9 20.78 51.996 21.032 52.188 21.176C52.404 21.32 52.668 21.392 52.98 21.392C53.172 21.392 53.352 21.38 53.52 21.356C53.712 21.308 53.904 21.26 54.096 21.212V25.82C53.544 26.036 53.004 26.18 52.476 26.252C51.972 26.348 51.516 26.396 51.108 26.396Z" fill="black"/>
<path d="M34.572 26L27.336 8.252H33.276L36.768 18.908L40.368 8.252H46.2L39 26H34.572Z" fill="black"/>
<path d="M13.6549 26V8.252H19.1269V13.112H18.4789C18.5029 12.104 18.7549 11.204 19.2349 10.412C19.7389 9.62 20.3749 8.996 21.1429 8.54C21.9349 8.084 22.7509 7.856 23.5909 7.856C24.2149 7.856 24.8029 7.952 25.3549 8.144C25.9309 8.312 26.5309 8.6 27.1549 9.008L24.5629 13.904C24.3229 13.736 23.9869 13.592 23.5549 13.472C23.1229 13.328 22.6909 13.256 22.2589 13.256C21.8509 13.256 21.4549 13.328 21.0709 13.472C20.7109 13.616 20.3869 13.844 20.0989 14.156C19.8349 14.444 19.6189 14.816 19.4509 15.272C19.3309 15.608 19.2349 16.04 19.1629 16.568C19.1149 17.072 19.0909 17.828 19.0909 18.836V26H13.6549Z" fill="black"/>
<path d="M9.252 26.396C8.244 26.396 7.284 26.204 6.372 25.82C5.46 25.436 4.716 24.812 4.14 23.948C3.588 23.06 3.312 21.86 3.312 20.348V4.544L8.784 1.628V18.8C8.784 19.856 8.916 20.648 9.18 21.176C9.444 21.704 9.972 21.968 10.764 21.968C11.004 21.968 11.268 21.944 11.556 21.896C11.844 21.848 12.156 21.776 12.492 21.68V25.82C11.964 26.012 11.436 26.156 10.908 26.252C10.38 26.348 9.828 26.396 9.252 26.396ZM0.360001 12.464V8.252H12.492V12.464H0.360001Z" fill="black"/>
</svg>
