<svg width="189" height="102" viewBox="0 0 189 102" fill="none" xmlns="http://www.w3.org/2000/svg">
<path d="M178.257 100.908C173.649 100.908 169.766 99.5427 166.609 96.812C163.452 93.996 161.873 89.5587 161.873 83.5V23.5L181.073 12V79.66C181.073 80.94 181.414 81.836 182.097 82.348C182.865 82.86 183.804 83.116 184.913 83.116C185.596 83.116 186.236 83.0733 186.833 82.988C187.516 82.8173 188.198 82.6467 188.881 82.476V98.86C186.918 99.628 184.998 100.14 183.121 100.396C181.329 100.737 179.708 100.908 178.257 100.908Z" fill="black"/>
<path d="M118.728 99.5L93 36.396H114.12L126.536 74.284L139.336 36.396H160.072L134.472 99.5H118.728Z" fill="black"/>
<path d="M45.382 99.5V36.396H64.838V53.676H62.534C62.6194 50.092 63.5154 46.892 65.222 44.076C67.014 41.26 69.2754 39.0413 72.006 37.42C74.822 35.7987 77.7234 34.988 80.71 34.988C82.9287 34.988 85.0194 35.3293 86.982 36.012C89.03 36.6093 91.1634 37.6333 93.382 39.084L84.166 56.492C83.3127 55.8947 82.118 55.3827 80.582 54.956C79.046 54.444 77.51 54.188 75.974 54.188C74.5234 54.188 73.1154 54.444 71.75 54.956C70.47 55.468 69.318 56.2787 68.294 57.388C67.3554 58.412 66.5874 59.7347 65.99 61.356C65.5634 62.5507 65.222 64.0867 64.966 65.964C64.7954 67.756 64.71 70.444 64.71 74.028V99.5H45.382Z" fill="black"/>
<path d="M31.616 100.908C28.032 100.908 24.6187 100.225 21.376 98.86C18.1333 97.4947 15.488 95.276 13.44 92.204C11.4773 89.0467 10.496 84.78 10.496 79.404V23.212L29.952 12.844V73.9C29.952 77.6547 30.4213 80.4707 31.36 82.348C32.2987 84.2253 34.176 85.164 36.992 85.164C37.8453 85.164 38.784 85.0787 39.808 84.908C40.832 84.7373 41.9413 84.4813 43.136 84.14V98.86C41.2587 99.5427 39.3813 100.055 37.504 100.396C35.6267 100.737 33.664 100.908 31.616 100.908ZM0 51.372V36.396H43.136V51.372H0Z" fill="black"/>
<path d="M163.399 18.1699C163.928 18.0956 164.445 17.9196 164.916 17.6366L179.974 8.60853C180.623 8.21877 181.047 7.58143 181.135 6.85964C181.23 6.08571 180.936 5.32909 180.329 4.78221C178.536 3.17601 175.875 2.89945 173.858 4.10807L171.167 5.72245L164.499 3.05549C162.703 2.3386 160.678 2.48239 159.083 3.43981C158.54 3.76474 158.193 4.29484 158.13 4.89507C158.063 5.52081 158.324 6.1459 158.827 6.56797L163.372 10.3947L162.504 10.9151L159.913 9.4098C158.687 8.69781 157.126 8.69461 155.94 9.40734C155.478 9.68343 155.159 10.1313 155.066 10.6358C154.968 11.1661 155.123 11.7095 155.492 12.1265L159.632 16.7991C160.586 17.875 162.033 18.3619 163.399 18.1699ZM158.54 11.3689L161.804 13.2645C162.212 13.5022 162.742 13.4937 163.156 13.247L166.079 11.4945C166.407 11.2973 166.622 10.9732 166.659 10.6161C166.697 10.26 166.553 9.91136 166.269 9.67307L160.88 5.13514C161.671 4.82765 162.603 4.83509 163.456 5.17492L170.739 8.08694C171.121 8.24086 171.566 8.2033 171.926 7.9893L175.19 6.03221C176.214 5.41717 177.599 5.59269 178.558 6.45332C178.664 6.54739 178.653 6.65912 178.638 6.68728L163.584 15.7125C162.971 16.0825 162.113 15.9078 161.589 15.3164L157.923 11.1786C158.131 11.1915 158.343 11.2547 158.54 11.3689Z" fill="black"/>
<path d="M99.8829 76.1651C99.2633 75.5449 98.4397 75.2031 97.5625 75.2031H95.375V70.2812H95.9219C96.5256 70.2812 97.0156 69.7912 97.0156 69.1875C97.0156 68.5838 96.5256 68.0938 95.9219 68.0938H86.0781C85.4744 68.0938 84.9844 68.5838 84.9844 69.1875C84.9844 69.7912 85.4744 70.2812 86.0781 70.2812H86.625V75.2031H84.4375C83.5603 75.2031 82.7367 75.5449 82.1182 76.164C81.498 76.783 81.1562 77.6072 81.1562 78.4844V95.9844C81.1562 96.8616 81.498 97.6857 82.1171 98.3037C82.7367 98.9238 83.5603 99.2656 84.4375 99.2656H84.9904V99.8125C84.9904 100.416 85.4804 100.906 86.0841 100.906C86.6879 100.906 87.1779 100.416 87.1779 99.8125V99.2656H94.8281V99.8125C94.8281 100.416 95.3181 100.906 95.9219 100.906C96.5256 100.906 97.0156 100.416 97.0156 99.8125V99.2656H97.5625C98.4397 99.2656 99.2633 98.9238 99.8818 98.3048C100.502 97.6857 100.844 96.8616 100.844 95.9844V78.4844C100.844 77.6072 100.502 76.783 99.8829 76.1651ZM88.8125 70.2812H93.1875V75.2031H88.8125V70.2812ZM98.6562 95.9844C98.6562 96.2764 98.5425 96.5509 98.3352 96.7582C98.1291 96.9644 97.8545 97.0781 97.5625 97.0781H84.4375C84.1455 97.0781 83.8709 96.9644 83.6637 96.7571C83.4575 96.5509 83.3438 96.2764 83.3438 95.9844V78.4844C83.3438 78.1923 83.4575 77.9178 83.6648 77.7105C83.8709 77.5044 84.1455 77.3906 84.4375 77.3906H97.5625C97.8545 77.3906 98.1291 77.5044 98.3363 77.7116C98.5425 77.9178 98.6562 78.1923 98.6562 78.4844V95.9844Z" fill="black"/>
<path d="M86.625 79.5781C86.0213 79.5781 85.5312 80.0681 85.5312 80.6719V93.7969C85.5312 94.4006 86.0213 94.8906 86.625 94.8906C87.2287 94.8906 87.7188 94.4006 87.7188 93.7969V80.6719C87.7188 80.0681 87.2287 79.5781 86.625 79.5781ZM91 79.5781C90.3963 79.5781 89.9062 80.0681 89.9062 80.6719V93.7969C89.9062 94.4006 90.3963 94.8906 91 94.8906C91.6037 94.8906 92.0938 94.4006 92.0938 93.7969V80.6719C92.0938 80.0681 91.6037 79.5781 91 79.5781ZM95.375 79.5781C94.7713 79.5781 94.2812 80.0681 94.2812 80.6719V93.7969C94.2812 94.4006 94.7713 94.8906 95.375 94.8906C95.9787 94.8906 96.4688 94.4006 96.4688 93.7969V80.6719C96.4688 80.0681 95.9787 79.5781 95.375 79.5781Z" fill="black"/>
</svg>
