<svg width="150" height="85" viewBox="0 0 150 85" fill="none" xmlns="http://www.w3.org/2000/svg">
<path d="M136.18 25.168H135.183C134.522 25.168 133.894 24.6246 133.812 23.9517C133.571 21.6526 133.571 19.3346 133.812 17.0355C133.894 16.3626 134.522 15.8192 135.183 15.8192H136.18C136.841 15.8192 137.469 16.3626 137.551 17.0355C137.792 19.3346 137.792 21.6526 137.551 23.9517C137.469 24.6246 136.841 25.168 136.18 25.168Z" fill="#9BA589"/>
<path d="M136.18 25.168H135.183C134.522 25.168 133.894 24.6246 133.812 23.9517C133.571 21.6526 133.571 19.3346 133.812 17.0355C133.894 16.3626 134.522 15.8192 135.183 15.8192H136.18C136.841 15.8192 137.469 16.3626 137.551 17.0355C137.792 19.3346 137.792 21.6526 137.551 23.9517C137.469 24.6246 136.841 25.168 136.18 25.168Z" stroke="#3E3442" stroke-width="2.6971" stroke-miterlimit="10" stroke-linecap="round" stroke-linejoin="round"/>
<path d="M93.5647 25.168H92.567C91.9064 25.168 91.2781 24.6246 91.1965 23.9517C90.9555 21.6526 90.9555 19.3346 91.1965 17.0355C91.2781 16.3626 91.9063 15.8192 92.567 15.8192H93.5647C94.2254 15.8192 94.8537 16.3626 94.9353 17.0355C95.1763 19.3346 95.1763 21.6526 94.9353 23.9517C94.8537 24.6246 94.2255 25.168 93.5647 25.168Z" fill="#9BA589"/>
<path d="M93.5647 25.168H92.567C91.9064 25.168 91.2781 24.6246 91.1965 23.9517C90.9555 21.6526 90.9555 19.3346 91.1965 17.0355C91.2781 16.3626 91.9062 15.8192 92.567 15.8192H93.5647C94.2253 15.8192 94.8537 16.3626 94.9353 17.0355C95.1762 19.3346 95.1762 21.6526 94.9353 23.9517C94.8537 24.6246 94.2255 25.168 93.5647 25.168ZM95.2289 75.1691L91.9457 73.9909C87.211 72.2916 84.2633 66.4808 85.0945 60.4848L86.2377 52.2387C86.6062 49.581 88.4737 47.6377 90.6596 47.6377H95.2289V75.1691Z" stroke="#3E3442" stroke-width="2.6971" stroke-miterlimit="10" stroke-linecap="round" stroke-linejoin="round"/>
<path d="M93.3132 60.4197C94.7297 59.8018 95.813 59.2518 96.6427 58.771V45.8938H90.6596C87.7761 45.8938 85.3304 48.4387 84.8442 51.9449L83.7009 60.191C83.6249 60.746 83.5765 61.3044 83.5558 61.8642C85.694 62.154 89.2525 62.1908 93.3132 60.4197Z" stroke="#3E3442" stroke-width="2.6971" stroke-miterlimit="10" stroke-linecap="round" stroke-linejoin="round"/>
<path d="M95.2289 75.1691L91.9457 73.9909C87.211 72.2916 84.2633 66.4808 85.0945 60.4848L86.2377 52.2387C86.6062 49.581 88.4737 47.6377 90.6596 47.6377H95.2289V75.1691Z" stroke="#3E3442" stroke-width="2.6971" stroke-miterlimit="10" stroke-linecap="round" stroke-linejoin="round"/>
<path d="M95.2289 75.1691L91.9457 73.9909C87.211 72.2916 84.2633 66.4808 85.0945 60.4848L86.2377 52.2387C86.6062 49.581 88.4737 47.6377 90.6596 47.6377H95.2289V75.1691Z" fill="#F26161"/>
<path opacity="0.3" d="M86.2379 52.7912L85.0946 61.0374C84.9753 61.9027 84.9331 62.7769 84.9685 63.6496C85.2536 63.6629 85.5397 63.6719 85.8271 63.6719C88.5205 63.6719 91.1882 63.1042 93.7547 61.9847C94.2501 61.769 94.7415 61.5443 95.2287 61.3106V48.1903H90.6596C88.4739 48.1902 86.6063 50.1334 86.2379 52.7912Z" fill="#994A4A"/>
<path d="M95.2289 75.1691L91.9457 73.9909C87.211 72.2916 84.2633 66.4808 85.0945 60.4848L86.2377 52.2387C86.6062 49.581 88.4737 47.6377 90.6596 47.6377H95.2289V75.1691Z" stroke="#3E3442" stroke-width="2.6971" stroke-miterlimit="10" stroke-linecap="round" stroke-linejoin="round"/>
<path d="M93.3132 60.4197C94.7297 59.8018 95.813 59.2518 96.6427 58.771V45.8938H90.6596C87.7761 45.8938 85.3304 48.4387 84.8442 51.9449L83.7009 60.191C83.6249 60.746 83.5765 61.3044 83.5558 61.8642C85.694 62.154 89.2525 62.1908 93.3132 60.4197Z" fill="#604957"/>
<path opacity="0.26" d="M84.5862 60.9607L85.7295 52.7146C86.2155 49.2083 88.6613 46.6636 91.5449 46.6636H96.6428V45.8938H90.6597C87.7763 45.8938 85.3305 48.4387 84.8443 51.9449L83.701 60.191C83.625 60.746 83.5766 61.3044 83.5559 61.8642C83.8397 61.9028 84.149 61.9365 84.4806 61.9624C84.5058 61.6292 84.5398 61.2953 84.5862 60.9607Z" fill="#725865"/>
<path d="M93.3132 60.4197C94.7297 59.8018 95.813 59.2518 96.6427 58.771V45.8938H90.6596C87.7761 45.8938 85.3304 48.4387 84.8442 51.9449L83.7009 60.191C83.6249 60.746 83.5765 61.3044 83.5558 61.8642C85.694 62.154 89.2525 62.1908 93.3132 60.4197Z" stroke="#3E3442" stroke-width="2.6971" stroke-miterlimit="10" stroke-linecap="round" stroke-linejoin="round"/>
<path d="M85.8271 60.6337C85.5629 60.6337 85.2997 60.6272 85.0385 60.6144C85.048 60.5358 85.0582 60.4576 85.0688 60.3804L86.2121 52.1343C86.6026 49.3184 88.4731 47.2746 90.6597 47.2746H95.2619V57.9581C94.538 58.3436 93.7002 58.7442 92.7613 59.1538C90.5098 60.1359 88.1766 60.6337 85.8271 60.6337ZM85.8271 60.6337C85.827 60.6337 85.8272 60.6337 85.8271 60.6337Z" stroke="#3E3442" stroke-width="0.809129" stroke-miterlimit="10" stroke-linecap="round" stroke-linejoin="round" stroke-dasharray="1.35 1.89"/>
<path d="M133.75 75.1691L137.033 73.9909C141.768 72.2916 144.716 66.4808 143.884 60.4848L142.741 52.2387C142.373 49.581 140.505 47.6377 138.319 47.6377H133.75V75.1691Z" stroke="#3E3442" stroke-width="2.6971" stroke-miterlimit="10" stroke-linecap="round" stroke-linejoin="round"/>
<path d="M135.666 60.4197C134.249 59.8018 133.166 59.2518 132.336 58.771V45.8938H138.319C141.203 45.8938 143.648 48.4387 144.135 51.9449L145.278 60.191C145.356 60.7511 145.402 61.3094 145.423 61.8642C143.285 62.154 139.726 62.1908 135.666 60.4197Z" stroke="#3E3442" stroke-width="2.6971" stroke-miterlimit="10" stroke-linecap="round" stroke-linejoin="round"/>
<path d="M133.75 75.1691L137.033 73.9909C141.768 72.2916 144.716 66.4808 143.884 60.4848L142.741 52.2387C142.373 49.581 140.505 47.6377 138.319 47.6377H133.75V75.1691Z" stroke="#3E3442" stroke-width="2.6971" stroke-miterlimit="10" stroke-linecap="round" stroke-linejoin="round"/>
<path d="M133.75 75.1691L137.033 73.9909C141.768 72.2916 144.716 66.4808 143.884 60.4848L142.741 52.2387C142.373 49.581 140.505 47.6377 138.319 47.6377H133.75V75.1691Z" fill="#F26161"/>
<path opacity="0.3" d="M143.884 61.0373L142.741 52.7912C142.373 50.1335 140.505 48.1902 138.319 48.1902H133.75V61.3105C134.237 61.5441 134.729 61.7688 135.224 61.9845C137.791 63.104 140.458 63.6717 143.152 63.6717C143.439 63.6717 143.725 63.6627 144.01 63.6495C144.046 62.7768 144.004 61.9026 143.884 61.0373Z" fill="#994A4A"/>
<path d="M133.75 75.1691L137.033 73.9909C141.768 72.2916 144.716 66.4808 143.884 60.4848L142.741 52.2387C142.373 49.581 140.505 47.6377 138.319 47.6377H133.75V75.1691Z" stroke="#3E3442" stroke-width="2.6971" stroke-miterlimit="10" stroke-linecap="round" stroke-linejoin="round"/>
<path d="M135.666 60.4197C134.249 59.8018 133.166 59.2518 132.336 58.771V45.8938H138.319C141.203 45.8938 143.648 48.4387 144.135 51.9449L145.278 60.191C145.356 60.7511 145.402 61.3094 145.423 61.8642C143.285 62.154 139.726 62.1908 135.666 60.4197Z" fill="#604957"/>
<path opacity="0.26" d="M137.353 46.6426C140.236 46.6426 142.682 49.1437 143.168 52.5898L144.311 60.6942C144.365 61.0737 144.402 61.4523 144.428 61.8296C144.786 61.8035 145.119 61.7684 145.423 61.7279C145.402 61.1777 145.354 60.6288 145.278 60.0834L144.135 51.979C143.648 48.533 141.203 46.0318 138.319 46.0318H132.336V46.6426H137.353Z" fill="#725865"/>
<path d="M143.152 60.6337C140.802 60.6337 138.469 60.1359 136.218 59.1538C135.279 58.7442 134.441 58.3436 133.717 57.9581V47.2746H138.319C140.506 47.2746 142.377 49.3185 142.767 52.1345L143.91 60.3804C143.921 60.4578 143.931 60.5358 143.941 60.6144C143.679 60.6272 143.416 60.6337 143.152 60.6337Z" stroke="#3E3442" stroke-width="0.809129" stroke-miterlimit="10" stroke-linecap="round" stroke-linejoin="round" stroke-dasharray="1.35 1.89"/>
<path d="M135.666 60.4197C134.249 59.8018 133.166 59.2518 132.336 58.771V45.8938H138.319C141.203 45.8938 143.648 48.4387 144.135 51.9449L145.278 60.191C145.356 60.7511 145.402 61.3094 145.423 61.8642C143.285 62.154 139.726 62.1908 135.666 60.4197Z" stroke="#3E3442" stroke-width="2.6971" stroke-miterlimit="10" stroke-linecap="round" stroke-linejoin="round"/>
<path d="M132.525 27.0872H96.2053C92.5088 27.1133 92.2858 24.4346 92.3238 20.7245C92.2858 17.0145 92.5088 14.3357 96.2053 14.3618H132.525C136.221 14.3357 136.444 17.0144 136.406 20.7245C136.444 24.4346 136.221 27.1133 132.525 27.0872Z" fill="#9BA589"/>
<path opacity="0.25" d="M136.406 20.7245C136.409 20.4349 136.41 20.1524 136.408 19.8761C136.387 23.1379 135.932 25.4131 132.524 25.3891H96.205C92.7972 25.4131 92.3421 23.1374 92.3213 19.8748C92.3196 20.1516 92.3207 20.4344 92.3236 20.7245C92.2856 24.4346 92.5086 27.1133 96.205 27.0872H132.524C136.221 27.1133 136.444 24.4346 136.406 20.7245V20.7245Z" fill="#9BA589"/>
<path opacity="0.31" d="M92.3238 20.7245C92.3207 21.008 92.32 21.2915 92.3216 21.575C92.3424 18.3143 92.7986 16.0402 96.2053 16.0641H132.525C135.932 16.04 136.387 18.3148 136.408 21.5762C136.41 21.299 136.409 21.0152 136.406 20.7244C136.444 17.0143 136.221 14.3356 132.525 14.3617H96.2053C92.5087 14.3357 92.2858 17.0145 92.3238 20.7245Z" fill="#9BA589"/>
<path d="M132.525 27.0872H96.2053C92.5088 27.1133 92.2858 24.4346 92.3238 20.7245C92.2858 17.0145 92.5088 14.3357 96.2053 14.3618H132.525C136.221 14.3357 136.444 17.0144 136.406 20.7245C136.444 24.4346 136.221 27.1133 132.525 27.0872Z" stroke="#3E3442" stroke-width="2.6971" stroke-miterlimit="10" stroke-linecap="round" stroke-linejoin="round"/>
<path d="M126.364 13.8911V23.2467M102.85 13.8911V23.2467" stroke="#3E3442" stroke-width="3.77593" stroke-miterlimit="10" stroke-linecap="round" stroke-linejoin="round"/>
<path d="M136.5 40.773C136.199 39.1888 135.763 37.6334 135.197 36.1237C131.893 27.3086 123.666 21.5898 114.611 21.5898H114.602C105.548 21.5898 97.321 27.3086 94.0169 36.1237C93.4502 37.6334 93.0141 39.1888 92.7133 40.773C91.1387 50.6637 90.5734 60.5993 91.2929 70.4543C91.9354 77.5532 97.9975 83.5961 103.447 83.5951H125.766C131.216 83.5961 137.278 77.5531 137.921 70.4543C138.64 60.5992 138.075 50.6637 136.5 40.773Z" fill="#F26161"/>
<path opacity="0.3" d="M137.921 68.7695C137.278 75.7234 131.216 81.6431 125.766 81.6421H103.448C97.9977 81.6431 91.9354 75.7235 91.293 68.7695C91.1173 66.3978 91.017 64.0212 90.9923 61.6432C90.9623 64.8133 91.0577 67.9793 91.293 71.1368C91.9356 78.0908 97.9977 84.0103 103.448 84.0094H125.766C131.216 84.0103 137.278 78.0908 137.921 71.1368C138.156 67.9793 138.252 64.8133 138.222 61.6432C138.197 64.0212 138.097 66.3978 137.921 68.7695Z" fill="#994A4A"/>
<path opacity="0.39" d="M136.5 40.773C136.199 39.1888 135.763 37.6334 135.197 36.1237C131.893 27.3086 123.666 21.5898 114.611 21.5898H114.602C105.548 21.5898 97.321 27.3086 94.0169 36.1237C93.4502 37.6334 93.0141 39.1888 92.7133 40.773C91.1387 50.6637 90.5734 60.5993 91.2929 70.4543C91.6247 74.1201 93.4017 77.5042 95.7933 79.92C93.985 77.6644 92.6916 74.774 92.4196 71.678C91.7349 62.0175 92.2729 52.2781 93.7714 42.5828C94.0571 41.0318 94.4721 39.5073 95.012 38.0254C98.1564 29.3842 105.986 23.7784 114.603 23.7784H114.611C123.228 23.7784 131.057 29.3842 134.202 38.0254C134.742 39.5073 135.157 41.0318 135.442 42.5828C136.941 52.2782 137.479 62.0177 136.794 71.678C136.522 74.7738 135.229 77.6644 133.42 79.92C135.812 77.5042 137.589 74.12 137.921 70.4542C138.64 60.5992 138.075 50.6637 136.5 40.773Z" fill="#F26161"/>
<path d="M106.993 41.3504C105.399 41.3504 104.106 42.6426 104.106 44.2366C104.106 45.8306 105.399 47.1229 106.993 47.1229C108.587 47.1229 109.879 45.8306 109.879 44.2366C109.879 42.6426 108.587 41.3504 106.993 41.3504ZM106.993 45.884C106.083 45.884 105.345 45.1465 105.345 44.2366C105.345 43.3267 106.083 42.5892 106.993 42.5892C107.902 42.5892 108.64 43.3267 108.64 44.2366C108.64 45.1465 107.902 45.884 106.993 45.884Z" fill="#EAE6E5"/>
<path d="M106.993 41.3504C105.399 41.3504 104.106 42.6426 104.106 44.2366C104.106 45.8306 105.399 47.1229 106.993 47.1229C108.587 47.1229 109.879 45.8306 109.879 44.2366C109.879 42.6426 108.587 41.3504 106.993 41.3504ZM106.993 45.884C106.083 45.884 105.345 45.1465 105.345 44.2366C105.345 43.3267 106.083 42.5892 106.993 42.5892C107.902 42.5892 108.64 43.3267 108.64 44.2366C108.64 45.1465 107.902 45.884 106.993 45.884Z" stroke="#3E3442" stroke-width="0.539419" stroke-miterlimit="10" stroke-linecap="round" stroke-linejoin="round"/>
<path d="M123.748 41.3504C122.154 41.3504 120.861 42.6426 120.861 44.2366C120.861 45.8306 122.154 47.1229 123.748 47.1229C125.342 47.1229 126.634 45.8306 126.634 44.2366C126.634 42.6426 125.342 41.3504 123.748 41.3504ZM123.748 45.884C122.838 45.884 122.1 45.1465 122.1 44.2366C122.1 43.3267 122.838 42.5892 123.748 42.5892C124.657 42.5892 125.395 43.3267 125.395 44.2366C125.395 45.1465 124.657 45.884 123.748 45.884Z" fill="#EAE6E5"/>
<path opacity="0.3" d="M136.214 40.3901C136.231 40.3753 136.247 40.3589 136.264 40.3438C135.985 39.1453 135.629 37.9662 135.197 36.8141C131.893 27.9989 123.666 22.2801 114.611 22.2801H114.603C105.548 22.2801 97.3212 27.9989 94.0171 36.8141C93.5851 37.9662 93.2288 39.1453 92.9502 40.3438C92.9672 40.3589 92.9828 40.3753 93 40.3901C99.1283 45.6353 107.766 46.5842 114.607 46.5842C121.448 46.5842 130.086 45.6353 136.214 40.3901Z" fill="#994A4A"/>
<path opacity="0.3" d="M127.647 77.6662H102.553C100.893 77.6662 99.5474 76.3205 99.5474 74.6605V63.4803C99.5474 61.8203 100.893 60.4746 102.553 60.4746H127.647C129.307 60.4746 130.653 61.8203 130.653 63.4803V74.6605C130.653 76.3205 129.307 77.6662 127.647 77.6662Z" fill="#994A4A" stroke="#994A4A" stroke-width="2.6971" stroke-miterlimit="10" stroke-linecap="round" stroke-linejoin="round"/>
<path d="M123.748 41.3504C122.154 41.3504 120.861 42.6426 120.861 44.2366C120.861 45.8306 122.154 47.1229 123.748 47.1229C125.342 47.1229 126.634 45.8306 126.634 44.2366C126.634 42.6426 125.342 41.3504 123.748 41.3504ZM123.748 45.884C122.838 45.884 122.1 45.1465 122.1 44.2366C122.1 43.3267 122.838 42.5892 123.748 42.5892C124.657 42.5892 125.395 43.3267 125.395 44.2366C125.395 45.1465 124.657 45.884 123.748 45.884Z" stroke="#3E3442" stroke-width="0.539419" stroke-miterlimit="10" stroke-linecap="round" stroke-linejoin="round"/>
<path d="M127.647 76.2852H102.553C100.893 76.2852 99.5474 74.9396 99.5474 73.2796V62.0994C99.5474 60.4394 100.893 59.0937 102.553 59.0937H127.647C129.307 59.0937 130.653 60.4394 130.653 62.0994V73.2796C130.653 74.9396 129.307 76.2852 127.647 76.2852Z" fill="#725865"/>
<path opacity="0.4" d="M116.029 68.7721L115.201 69.6221C114.885 69.9469 114.329 69.9469 114.012 69.6221L113.184 68.7721C113.123 68.7103 113.088 68.6269 113.088 68.5398V58.1548C113.088 57.9619 113.259 57.8055 113.47 57.8055H115.743C115.955 57.8055 116.126 57.9619 116.126 58.1548V68.5398C116.126 68.6256 116.091 68.7082 116.029 68.7721Z" fill="#3E3442" stroke="#3E3442" stroke-width="1.61826" stroke-miterlimit="10" stroke-linecap="round" stroke-linejoin="round"/>
<path d="M127.647 76.2852H102.553C100.893 76.2852 99.5474 74.9396 99.5474 73.2796V62.0994C99.5474 60.4394 100.893 59.0937 102.553 59.0937H127.647C129.307 59.0937 130.653 60.4394 130.653 62.0994V73.2796C130.653 74.9396 129.307 76.2852 127.647 76.2852Z" stroke="#3E3442" stroke-width="2.6971" stroke-miterlimit="10" stroke-linecap="round" stroke-linejoin="round"/>
<path d="M102.553 74.6282C101.809 74.6282 101.204 74.0232 101.204 73.2796V62.0993C101.204 61.3557 101.809 60.7507 102.553 60.7507H127.647C128.391 60.7507 128.996 61.3557 128.996 62.0993V73.2796C128.996 74.0232 128.391 74.6282 127.647 74.6282H102.553Z" stroke="#3E3442" stroke-width="0.809129" stroke-linecap="round" stroke-linejoin="round" stroke-dasharray="1.35 1.88"/>
<path d="M136.5 40.773C136.199 39.1888 135.763 37.6334 135.197 36.1237C131.893 27.3086 123.666 21.5898 114.611 21.5898H114.602C105.548 21.5898 97.321 27.3086 94.0169 36.1237C93.4502 37.6334 93.0141 39.1888 92.7133 40.773C91.1387 50.6637 90.5734 60.5993 91.2929 70.4543C91.9354 77.5532 97.9975 83.5961 103.447 83.5951H125.766C131.216 83.5961 137.278 77.5531 137.921 70.4543C138.64 60.5992 138.075 50.6637 136.5 40.773Z" stroke="#3E3442" stroke-width="2.6971" stroke-miterlimit="10" stroke-linecap="round" stroke-linejoin="round"/>
<path d="M114.607 44.2366C122.752 44.2366 130.102 43.113 135.316 38.6505C136.288 37.8185 136.669 36.3842 136.238 35.1132L136.231 35.0923C134.537 30.1081 131.585 25.8799 127.696 22.8651C123.822 19.8625 119.297 18.2755 114.603 18.2755C109.916 18.2755 105.392 19.8625 101.518 22.8651C97.6283 25.88 94.6768 30.1081 92.9825 35.0923L92.9755 35.1133C92.5444 36.3843 92.9259 37.8185 93.8979 38.6505C99.1116 43.113 106.461 44.2366 114.607 44.2366Z" fill="#725865"/>
<path opacity="0.4" d="M108.163 30.0001L107.335 30.9306C107.26 31.0144 107.169 31.0815 107.066 31.1275C106.964 31.1734 106.853 31.1972 106.741 31.1972C106.628 31.1972 106.517 31.1734 106.415 31.1275C106.312 31.0815 106.221 31.0144 106.146 30.9306L105.318 30.0001C105.256 29.9301 105.222 29.8396 105.222 29.7459V18.3767C105.222 18.2752 105.262 18.1779 105.334 18.1062C105.405 18.0345 105.503 17.9942 105.604 17.9942H107.877C107.979 17.9942 108.076 18.0345 108.148 18.1062C108.219 18.1779 108.26 18.2752 108.26 18.3767V29.7459C108.26 29.8396 108.225 29.93 108.163 30.0001ZM123.675 30.0001L122.847 30.9306C122.772 31.0144 122.681 31.0815 122.578 31.1275C122.476 31.1734 122.365 31.1972 122.253 31.1972C122.14 31.1972 122.029 31.1734 121.927 31.1275C121.825 31.0815 121.733 31.0144 121.658 30.9306L120.831 30.0001C120.768 29.9301 120.734 29.8396 120.734 29.7459V18.3767C120.734 18.2752 120.774 18.1779 120.846 18.1062C120.918 18.0345 121.015 17.9942 121.116 17.9942H123.389C123.491 17.9942 123.588 18.0345 123.66 18.1062C123.732 18.1779 123.772 18.2752 123.772 18.3767V29.7459C123.772 29.8395 123.737 29.9301 123.675 30.0001Z" fill="#3E3442" stroke="#3E3442" stroke-width="1.61826" stroke-miterlimit="10" stroke-linecap="round" stroke-linejoin="round"/>
<path opacity="0.32" d="M135.316 37.4106C130.102 41.873 122.752 42.9967 114.607 42.9967C106.462 42.9967 99.1117 41.873 93.898 37.4105C93.3506 36.9419 92.9906 36.2825 92.8574 35.5689C92.6436 36.7144 93.0406 37.9166 93.898 38.6504C99.1117 43.113 106.461 44.2366 114.607 44.2366C122.752 44.2366 130.102 43.113 135.316 38.6505C136.173 37.9167 136.57 36.7145 136.357 35.569C136.223 36.2827 135.863 36.9421 135.316 37.4106Z" fill="#725865"/>
<path opacity="0.58" d="M136.238 35.1132L136.231 35.0923C134.537 30.1081 131.585 25.8799 127.696 22.8651C123.822 19.8625 119.297 18.2755 114.603 18.2755C109.916 18.2755 105.392 19.8625 101.518 22.8651C97.6284 25.88 94.6768 30.1081 92.9826 35.0923L92.9755 35.1133C92.5624 36.3313 92.8971 37.6978 93.7812 38.542C93.3386 37.7622 93.2265 36.7845 93.5303 35.889L93.5372 35.8686C95.188 31.012 98.0638 26.8925 101.854 23.9549C105.628 21.0294 110.037 19.4831 114.603 19.4831C119.177 19.4831 123.586 21.0294 127.36 23.9549C131.15 26.8925 134.026 31.0122 135.677 35.8687L135.683 35.889C135.987 36.7845 135.875 37.7622 135.433 38.5421C136.317 37.6979 136.651 36.3313 136.238 35.1132Z" fill="#725865"/>
<path d="M114.607 44.2366C122.752 44.2366 130.102 43.113 135.316 38.6505C136.288 37.8185 136.669 36.3842 136.238 35.1132L136.231 35.0923C134.537 30.1081 131.585 25.8799 127.696 22.8651C123.822 19.8625 119.297 18.2755 114.603 18.2755C109.916 18.2755 105.392 19.8625 101.518 22.8651C97.6283 25.88 94.6768 30.1081 92.9825 35.0923L92.9755 35.1133C92.5444 36.3843 92.9259 37.8185 93.8979 38.6505C99.1116 43.113 106.461 44.2366 114.607 44.2366Z" stroke="#3E3442" stroke-width="2.6971" stroke-miterlimit="10" stroke-linecap="round" stroke-linejoin="round"/>
<path d="M114.607 42.5795C105.222 42.5795 99.1673 40.9795 94.9753 37.3916C94.5085 36.9919 94.3314 36.274 94.5446 35.6455L94.5513 35.6258C96.1409 30.9497 98.901 26.9901 102.533 24.1748C106.114 21.3996 110.287 19.9327 114.602 19.9327C118.923 19.9327 123.1 21.3996 126.68 24.175C130.313 26.9904 133.073 30.95 134.662 35.6258L134.669 35.645C134.882 36.2741 134.705 36.9921 134.238 37.3917C130.046 40.9796 123.992 42.5795 114.607 42.5795Z" stroke="#3E3442" stroke-width="0.809129" stroke-miterlimit="10" stroke-linecap="round" stroke-linejoin="round" stroke-dasharray="1.35 1.89"/>
<path d="M116.029 67.4638L115.11 68.497C115.047 68.568 114.969 68.6248 114.882 68.6637C114.796 68.7026 114.702 68.7227 114.607 68.7227C114.512 68.7227 114.418 68.7026 114.331 68.6637C114.244 68.6248 114.167 68.568 114.104 68.497L113.184 67.4638C113.122 67.3938 113.088 67.3034 113.088 67.2096V58.188C113.088 58.0865 113.128 57.9892 113.2 57.9175C113.271 57.8458 113.369 57.8055 113.47 57.8055H115.743C115.845 57.8055 115.942 57.8458 116.014 57.9175C116.085 57.9892 116.126 58.0865 116.126 58.188V67.2096C116.126 67.3033 116.091 67.3938 116.029 67.4638Z" fill="#EDAB7A"/>
<path d="M116.029 67.4638L115.201 68.3943C115.126 68.4782 115.035 68.5453 114.933 68.5912C114.83 68.6372 114.719 68.661 114.607 68.661C114.495 68.661 114.384 68.6372 114.281 68.5912C114.179 68.5453 114.087 68.4782 114.012 68.3943L113.184 67.4638C113.122 67.3938 113.088 67.3034 113.088 67.2096V58.188C113.088 58.0865 113.128 57.9892 113.2 57.9175C113.271 57.8458 113.369 57.8055 113.47 57.8055H115.743C115.845 57.8055 115.942 57.8458 116.014 57.9175C116.085 57.9892 116.126 58.0865 116.126 58.188V67.2096C116.126 67.3033 116.091 67.3938 116.029 67.4638Z" stroke="#3E3442" stroke-width="1.61826" stroke-miterlimit="10" stroke-linecap="round" stroke-linejoin="round"/>
<path d="M114.607 63.1414V64.8448M113.088 62.9806H116.126V64.8448H113.088V62.9806Z" stroke="#3E3442" stroke-width="1.61826" stroke-miterlimit="10" stroke-linecap="round" stroke-linejoin="round"/>
<path d="M114.607 60.1324C114.864 60.1324 115.073 59.9238 115.073 59.6664C115.073 59.409 114.864 59.2003 114.607 59.2003C114.349 59.2003 114.141 59.409 114.141 59.6664C114.141 59.9238 114.349 60.1324 114.607 60.1324Z" fill="#3E3442"/>
<path d="M114.607 62.0657C114.864 62.0657 115.073 61.857 115.073 61.5996C115.073 61.3423 114.864 61.1336 114.607 61.1336C114.349 61.1336 114.141 61.3423 114.141 61.5996C114.141 61.857 114.349 62.0657 114.607 62.0657Z" fill="#3E3442"/>
<path d="M114.607 66.6745C114.864 66.6745 115.073 66.4659 115.073 66.2085C115.073 65.9511 114.864 65.7424 114.607 65.7424C114.349 65.7424 114.141 65.9511 114.141 66.2085C114.141 66.4659 114.349 66.6745 114.607 66.6745Z" fill="#3E3442"/>
<path d="M108.163 28.7573L107.244 29.7905C107.18 29.8614 107.103 29.9183 107.016 29.9572C106.93 29.9961 106.836 30.0162 106.741 30.0162C106.646 30.0162 106.552 29.9961 106.465 29.9572C106.378 29.9183 106.301 29.8614 106.238 29.7905L105.318 28.7573C105.256 28.6872 105.221 28.5968 105.221 28.503V17.1338C105.221 17.0324 105.262 16.9351 105.333 16.8634C105.405 16.7916 105.502 16.7513 105.604 16.7513H107.877C107.979 16.7513 108.076 16.7916 108.148 16.8634C108.219 16.9351 108.26 17.0324 108.26 17.1338V28.503C108.26 28.5967 108.225 28.6873 108.163 28.7573Z" fill="#EDAB7A"/>
<path d="M108.163 28.7573L107.335 29.6877C107.26 29.7716 107.169 29.8387 107.066 29.8847C106.964 29.9306 106.853 29.9544 106.741 29.9544C106.628 29.9544 106.517 29.9306 106.415 29.8847C106.312 29.8387 106.221 29.7716 106.146 29.6877L105.318 28.7573C105.256 28.6872 105.222 28.5968 105.222 28.503V17.1338C105.222 17.0324 105.262 16.9351 105.334 16.8634C105.405 16.7916 105.503 16.7513 105.604 16.7513H107.877C107.979 16.7513 108.076 16.7916 108.148 16.8634C108.219 16.9351 108.26 17.0324 108.26 17.1338V28.503C108.26 28.5968 108.225 28.6872 108.163 28.7573Z" stroke="#3E3442" stroke-width="1.61826" stroke-miterlimit="10" stroke-linecap="round" stroke-linejoin="round"/>
<path opacity="0.6" d="M105.222 24.2739H108.26V26.1381H105.222V24.2739Z" fill="#EDAB7A"/>
<path d="M106.741 24.4347V26.1381M105.222 24.2739H108.26V26.1381H105.222V24.2739Z" stroke="#3E3442" stroke-width="1.61826" stroke-miterlimit="10" stroke-linecap="round" stroke-linejoin="round"/>
<path d="M106.741 21.4257C106.998 21.4257 107.207 21.2171 107.207 20.9597C107.207 20.7023 106.998 20.4936 106.741 20.4936C106.483 20.4936 106.275 20.7023 106.275 20.9597C106.275 21.2171 106.483 21.4257 106.741 21.4257Z" fill="#3E3442"/>
<path d="M106.741 23.359C106.998 23.359 107.207 23.1503 107.207 22.8929C107.207 22.6355 106.998 22.4269 106.741 22.4269C106.483 22.4269 106.275 22.6355 106.275 22.8929C106.275 23.1503 106.483 23.359 106.741 23.359Z" fill="#3E3442"/>
<path d="M106.741 27.9678C106.998 27.9678 107.207 27.7591 107.207 27.5017C107.207 27.2443 106.998 27.0357 106.741 27.0357C106.483 27.0357 106.275 27.2443 106.275 27.5017C106.275 27.7591 106.483 27.9678 106.741 27.9678Z" fill="#3E3442"/>
<path d="M123.675 28.7573L122.756 29.7905C122.693 29.8614 122.615 29.9183 122.528 29.9572C122.442 29.9961 122.348 30.0162 122.253 30.0162C122.158 30.0162 122.064 29.9961 121.977 29.9572C121.89 29.9183 121.813 29.8614 121.75 29.7905L120.83 28.7573C120.768 28.6872 120.734 28.5968 120.734 28.503V17.1338C120.734 17.0324 120.774 16.9351 120.846 16.8634C120.917 16.7916 121.015 16.7513 121.116 16.7513H123.389C123.491 16.7513 123.588 16.7916 123.66 16.8634C123.731 16.9351 123.772 17.0324 123.772 17.1338V28.503C123.772 28.5968 123.737 28.6873 123.675 28.7573Z" fill="#EDAB7A"/>
<path opacity="0.6" d="M120.734 24.2739H123.772V26.1381H120.734V24.2739Z" fill="#EDAB7A"/>
<path d="M123.675 28.7573L122.847 29.6877C122.772 29.7716 122.681 29.8387 122.578 29.8847C122.476 29.9306 122.365 29.9544 122.253 29.9544C122.14 29.9544 122.029 29.9306 121.927 29.8847C121.825 29.8387 121.733 29.7716 121.658 29.6877L120.831 28.7573C120.768 28.6872 120.734 28.5968 120.734 28.503V17.1338C120.734 17.0324 120.774 16.9351 120.846 16.8634C120.918 16.7916 121.015 16.7513 121.116 16.7513H123.389C123.491 16.7513 123.588 16.7916 123.66 16.8634C123.732 16.9351 123.772 17.0324 123.772 17.1338V28.503C123.772 28.5967 123.737 28.6873 123.675 28.7573Z" stroke="#3E3442" stroke-width="1.61826" stroke-miterlimit="10" stroke-linecap="round" stroke-linejoin="round"/>
<path d="M106.741 19.4924C106.998 19.4924 107.207 19.2838 107.207 19.0264C107.207 18.769 106.998 18.5603 106.741 18.5603C106.483 18.5603 106.275 18.769 106.275 19.0264C106.275 19.2838 106.483 19.4924 106.741 19.4924Z" fill="#3E3442"/>
<path d="M122.253 19.4924C122.51 19.4924 122.719 19.2838 122.719 19.0264C122.719 18.769 122.51 18.5603 122.253 18.5603C121.996 18.5603 121.787 18.769 121.787 19.0264C121.787 19.2838 121.996 19.4924 122.253 19.4924Z" fill="#3E3442"/>
<path d="M106.741 17.6835C106.998 17.6835 107.207 17.4748 107.207 17.2174C107.207 16.96 106.998 16.7513 106.741 16.7513C106.483 16.7513 106.275 16.96 106.275 17.2174C106.275 17.4748 106.483 17.6835 106.741 17.6835Z" fill="#3E3442"/>
<path d="M122.253 17.6835C122.51 17.6835 122.719 17.4748 122.719 17.2174C122.719 16.96 122.51 16.7513 122.253 16.7513C121.996 16.7513 121.787 16.96 121.787 17.2174C121.787 17.4748 121.996 17.6835 122.253 17.6835Z" fill="#3E3442"/>
<path opacity="0.6" d="M120.734 24.2739H123.772V26.1381H120.734V24.2739Z" fill="#EDAB7A"/>
<path d="M122.253 24.4347V26.1381M120.734 24.2739H123.772V26.1381H120.734V24.2739Z" stroke="#3E3442" stroke-width="1.61826" stroke-miterlimit="10" stroke-linecap="round" stroke-linejoin="round"/>
<path d="M122.253 21.4257C122.51 21.4257 122.719 21.2171 122.719 20.9597C122.719 20.7023 122.51 20.4936 122.253 20.4936C121.996 20.4936 121.787 20.7023 121.787 20.9597C121.787 21.2171 121.996 21.4257 122.253 21.4257Z" fill="#3E3442"/>
<path d="M122.253 23.359C122.51 23.359 122.719 23.1503 122.719 22.8929C122.719 22.6355 122.51 22.4269 122.253 22.4269C121.996 22.4269 121.787 22.6355 121.787 22.8929C121.787 23.1503 121.996 23.359 122.253 23.359Z" fill="#3E3442"/>
<path d="M122.253 27.9678C122.51 27.9678 122.719 27.7591 122.719 27.5017C122.719 27.2443 122.51 27.0357 122.253 27.0357C121.996 27.0357 121.787 27.2443 121.787 27.5017C121.787 27.7591 121.996 27.9678 122.253 27.9678Z" fill="#3E3442"/>
<path d="M117.399 40.5772H111.668C111.402 40.5772 111.148 40.4717 110.96 40.284C110.772 40.0963 110.667 39.8418 110.667 39.5763V32.8094C110.667 32.544 110.772 32.2894 110.96 32.1017C111.148 31.914 111.402 31.8085 111.668 31.8085H117.399C117.665 31.8085 117.919 31.914 118.107 32.1017C118.295 32.2894 118.4 32.544 118.4 32.8094V39.5763C118.4 39.7077 118.374 39.8379 118.324 39.9593C118.274 40.0808 118.2 40.1911 118.107 40.2841C118.014 40.377 117.904 40.4507 117.782 40.501C117.661 40.5513 117.531 40.5772 117.399 40.5772Z" fill="#826776"/>
<path opacity="0.32" d="M110.667 31.8084H118.4V35.6212H110.667V31.8084Z" fill="#725865"/>
<path d="M117.399 40.5772H111.668C111.402 40.5772 111.148 40.4717 110.96 40.284C110.772 40.0963 110.667 39.8418 110.667 39.5763V32.8094C110.667 32.544 110.772 32.2894 110.96 32.1017C111.148 31.914 111.402 31.8085 111.668 31.8085H117.399C117.665 31.8085 117.919 31.914 118.107 32.1017C118.295 32.2894 118.4 32.544 118.4 32.8094V39.5763C118.4 39.7077 118.374 39.8379 118.324 39.9593C118.274 40.0808 118.2 40.1911 118.107 40.2841C118.014 40.377 117.904 40.4507 117.782 40.501C117.661 40.5513 117.531 40.5772 117.399 40.5772Z" stroke="#3E3442" stroke-width="1.61826" stroke-miterlimit="10" stroke-linecap="round" stroke-linejoin="round"/>
<path d="M111.668 39.7486C111.622 39.7486 111.578 39.7304 111.546 39.6981C111.513 39.6657 111.495 39.6219 111.495 39.5762V32.8093C111.495 32.7143 111.573 32.6368 111.668 32.6368H117.399C117.494 32.6368 117.571 32.7141 117.571 32.8093V39.5762C117.571 39.6219 117.553 39.6657 117.521 39.698C117.488 39.7304 117.445 39.7486 117.399 39.7486H111.668Z" stroke="#3E3442" stroke-width="0.539419" stroke-miterlimit="10" stroke-linecap="round" stroke-linejoin="round" stroke-dasharray="0.81 1.35"/>
<path d="M109.976 28.9085H119.09V34.2019H109.976V28.9085Z" fill="#F26161"/>
<path d="M109.976 28.9085H119.09V34.2019H109.976V28.9085Z" stroke="#3E3442" stroke-width="1.61826" stroke-miterlimit="10" stroke-linecap="round" stroke-linejoin="round"/>
<path d="M120.455 53.7227H108.274C107.975 53.7227 107.687 53.6036 107.475 53.3916C107.263 53.1796 107.144 52.8921 107.144 52.5924C107.144 52.2926 107.263 52.0051 107.475 51.7932C107.687 51.5812 107.975 51.4621 108.274 51.4621H120.455C120.755 51.4621 121.042 51.5812 121.254 51.7932C121.466 52.0051 121.585 52.2926 121.585 52.5924C121.585 52.7408 121.556 52.8878 121.499 53.0249C121.443 53.1621 121.359 53.2867 121.254 53.3916C121.149 53.4966 121.025 53.5799 120.888 53.6367C120.75 53.6935 120.603 53.7227 120.455 53.7227Z" fill="#725865"/>
<path d="M120.455 53.7227H108.274C107.975 53.7227 107.687 53.6036 107.475 53.3916C107.263 53.1796 107.144 52.8921 107.144 52.5924C107.144 52.2926 107.263 52.0051 107.475 51.7932C107.687 51.5812 107.975 51.4621 108.274 51.4621H120.455C120.755 51.4621 121.042 51.5812 121.254 51.7932C121.466 52.0051 121.585 52.2926 121.585 52.5924C121.585 52.7408 121.556 52.8878 121.499 53.0249C121.443 53.1621 121.359 53.2867 121.254 53.3916C121.149 53.4966 121.025 53.5799 120.888 53.6367C120.75 53.6935 120.603 53.7227 120.455 53.7227Z" stroke="#3E3442" stroke-width="1.07884" stroke-miterlimit="10" stroke-linecap="round" stroke-linejoin="round"/>
<path d="M115.671 52.5924H119.762M112.31 52.5924H114.365M108.968 52.5924H111.229" stroke="#3E3442" stroke-width="1.61826" stroke-miterlimit="10" stroke-linejoin="round"/>
<path d="M113.051 28.2525H116.016V37.194H113.051V28.2525Z" fill="#D35050"/>
<path d="M113.051 28.2525H116.016V37.194H113.051V28.2525Z" stroke="#3E3442" stroke-width="1.07884" stroke-miterlimit="10" stroke-linecap="round" stroke-linejoin="round"/>
<path d="M114.607 35.9299C114.893 35.9299 115.125 35.698 115.125 35.412C115.125 35.126 114.893 34.8942 114.607 34.8942C114.321 34.8942 114.089 35.126 114.089 35.412C114.089 35.698 114.321 35.9299 114.607 35.9299Z" stroke="#3E3442" stroke-width="1.07884" stroke-miterlimit="10" stroke-linecap="round" stroke-linejoin="round"/>
<path d="M124.823 37.8515C125.945 37.8515 126.855 36.9418 126.855 35.8197C126.855 34.6975 125.945 33.7878 124.823 33.7878C123.7 33.7878 122.791 34.6975 122.791 35.8197C122.791 36.9418 123.7 37.8515 124.823 37.8515Z" fill="#826776"/>
<path d="M124.823 37.8515C125.945 37.8515 126.855 36.9418 126.855 35.8197C126.855 34.6975 125.945 33.7878 124.823 33.7878C123.7 33.7878 122.791 34.6975 122.791 35.8197C122.791 36.9418 123.7 37.8515 124.823 37.8515Z" stroke="#3E3442" stroke-width="0.539419" stroke-miterlimit="10" stroke-linecap="round" stroke-linejoin="round"/>
<path d="M123.997 36.6641L124.823 34.5785L125.648 36.6641H123.997Z" fill="#8CA85E"/>
<path d="M123.997 36.6641L124.823 34.5785L125.648 36.6641H123.997Z" stroke="#3E3442" stroke-width="0.539419" stroke-miterlimit="10" stroke-linecap="round" stroke-linejoin="round"/>
</svg>
